<?xml version="1.0" encoding="utf-8"?>
<!-- Generator: Adobe Illustrator 19.0.0, SVG Export Plug-In . SVG Version: 6.00 Build 0)  -->
<svg version="1.1" id="Layer_1" xmlns="http://www.w3.org/2000/svg" xmlns:xlink="http://www.w3.org/1999/xlink" x="0px" y="0px"
	 viewBox="0 0 38.9 38.3" style="enable-background:new 0 0 38.9 38.3;" xml:space="preserve">
<style type="text/css">
	.st0{fill:#FFFFFF;}
</style>
<path id="XMLID_3_" class="st0" d="M35.6,0.8H3.4c-1.3,0-2.3,1-2.3,2.3v32.2c0,1.3,1,2.3,2.3,2.3h17.2V23.7h-4.6V18h4.6v-3.4
	c0-4.7,2.7-8,6.9-8c2,0,3.4,0,4.6,0v5.7h-2.3c-2.3,0-3.4,1.1-3.4,3.4V18h5.7L31,23.7h-4.6v13.8h9.2c1.3,0,2.3-1,2.3-2.3V3.1
	C37.9,1.8,36.9,0.8,35.6,0.8z"/>
</svg>
