<?xml version="1.0" encoding="utf-8"?>
<!-- Generator: Adobe Illustrator 19.0.0, SVG Export Plug-In . SVG Version: 6.00 Build 0)  -->
<svg version="1.1" id="Layer_1" xmlns="http://www.w3.org/2000/svg" xmlns:xlink="http://www.w3.org/1999/xlink" x="0px" y="0px"
	 viewBox="0 0 893 280" style="enable-background:new 0 0 893 280;" xml:space="preserve">
<style type="text/css">
	.st0{fill:#FFFFFF;}
</style>
<path id="XMLID_88_" class="st0" d="M417.2,250.7c14.9,0,29.8,0,44.8,0c0-9.1,0-18.1,0-27.2c-9.9,0-19.8,0-29.8,0c0-7,0-13.8,0-20.8
	c17.5,0,34.9,0,52.5,0c0,23,0,45.9,0,69c-0.4,0-0.9,0.1-1.3,0.1c-24.5,0-49,0-73.4,0c-8.8,0-15.4-6.6-15.4-15.4
	c0-24.8,0-49.7,0-74.5c0-7.5,5-13.6,12.2-15c1-0.2,2-0.2,3-0.2c24.5,0,49,0,73.4,0c0.5,0,0.9,0,1.5,0c0,7,0,13.9,0,20.9
	c-22.5,0-44.9,0-67.5,0C417.2,208.5,417.2,229.6,417.2,250.7z"/>
<path id="XMLID_81_" class="st0" d="M95.4,187.4c-22.5,0-44.8,0-67.3,0c0,5.1,0,10,0,15.2c0.5,0,1,0,1.5,0c17,0,34,0,51,0
	c8.2,0,14.9,6.6,14.9,14.8c0,13,0,26,0,39c0,8.6-6.5,15.3-15.1,15.3c-24.6,0-49.3,0-73.9,0c-0.3,0-0.6,0-1-0.1c0-6.9,0-13.8,0-20.8
	c22.4,0,44.9,0,67.4,0c0-9.2,0-18.2,0-27.3c-0.5,0-1,0-1.4,0c-16.8,0-33.7,0-50.5,0c-8.9,0-15.5-6.4-15.5-15.3
	c-0.1-8.8,0-17.6,0-26.4c-0.1-8.3,6.3-14,12.3-15c0.9-0.2,1.9-0.2,2.9-0.2c24.5,0,49,0,73.4,0c0.5,0,0.9,0,1.5,0
	C95.4,173.5,95.4,180.4,95.4,187.4z"/>
<path id="XMLID_80_" class="st0" d="M787.9,250.7c0,7,0,13.9,0,20.9c-0.4,0-0.8,0.1-1.1,0.1c-22.1,0-44.2,0-66.2,0
	c-7.2,0-13.2-4.8-14.8-11.8c-0.3-1.2-0.4-2.4-0.4-3.6c0-24.8,0-49.7,0-74.5c0-7.5,5-13.6,12.2-15c1-0.2,2-0.2,3-0.2
	c22,0,43.9,0,65.9,0c0.5,0,0.9,0,1.5,0c0,7,0,13.9,0,21c-20,0-39.9,0-59.9,0c0,5.1,0,10,0,15.1c20,0,39.9,0,59.9,0
	c0,7,0,13.9,0,20.9c-20,0-39.9,0-59.9,0c0,9.2,0,18.2,0,27.3C748,250.7,767.9,250.7,787.9,250.7z"/>
<path id="XMLID_79_" class="st0" d="M606.3,187.5c0-7.1,0-13.9,0-20.9c30,0,60,0,90,0c0,0.4,0.1,0.7,0.1,1c0,6.3,0,12.6,0,19
	c0,0.5-0.2,1.1-0.5,1.5c-12.1,13.4-24.2,26.7-36.4,40c-6.6,7.2-13.1,14.4-19.7,21.6c-0.2,0.2-0.3,0.4-0.6,0.9c19.2,0,38.1,0,57.1,0
	c0,7.1,0,14,0,21c-30,0-59.9,0-90,0c0-0.4-0.1-0.7-0.1-1.1c0-6.3,0-12.6,0-18.8c0-0.6,0.3-1.3,0.6-1.7c6.9-7.6,13.8-15.2,20.7-22.8
	c10.1-11.1,20.1-22.1,30.2-33.2c1.9-2.1,3.8-4.2,5.9-6.5C644.5,187.5,625.5,187.5,606.3,187.5z"/>
<path id="XMLID_75_" class="st0" d="M139.8,271.6c0-28,0-56,0-84.1c-11.8,0-23.4,0-35.2,0c0-7,0-13.9,0-20.9c30,0,59.9,0,89.9,0
	c0,6.9,0,13.8,0,20.8c-10.6,0-21.3,0-32.1,0c0,28.1,0,56.1,0,84.2C154.9,271.6,147.4,271.6,139.8,271.6z"/>
<path id="XMLID_59_" class="st0" d="M322.3,7.2c-0.1,0-0.2,0-0.2,0c-0.2,0.2-0.4,0.4-0.6,0.6c-6.6,4.4-13.2,9-20,13.2
	c-3,1.9-5.1,4-5.8,7.5c-0.1,0.5-0.7,1.2-1.2,1.4c-1.4,0.6-2.3,1.5-2.6,3c-0.1,0.4-0.5,0.9-0.9,1.1c-12.9,6.7-25.7,13.3-38.6,19.9
	c-0.3,0.1-0.6,0.2-0.9,0.4c-0.3-1-0.4-2-0.7-2.8c-0.3-0.8,0-1,0.6-1.4c3.1-1.8,6.2-3.6,9.3-5.4c1.6-0.9,3.1-1.9,4.8-2.8
	c-1.6-3.1-3.2-6.2-4.8-9.2c-0.2,0.1-0.3,0.1-0.3,0.1c-10.9,6.9-21.8,13.9-32.7,20.8c-0.3,0.2-0.6,0.9-0.5,1.2
	c0.6,1.6,1.4,3.1,2.1,4.7c4.8-1.8,9.5-3.4,14.2-5.2c0.3,1.3,0.7,2.5,1,3.7c-15.7,8.1-31.4,16.2-47.1,24.3c0.6,1.3,1.2,2.4,1.8,3.6
	c-2.7,1.4-5.4,2.8-8,4.1c-0.2-0.5-0.5-0.8-0.7-1.2c-1.2-2.4-2.5-4.8-3.8-7.2c-0.2-0.3-0.8-0.7-1.1-0.7c-1.9,0.1-3.9,0.3-6,0.5
	c0.3,0.6,0.6,1.1,0.8,1.6c2.1,4.1,4.5,8.2,6.4,12.5c1.3,2.8,3.5,4.6,5.5,6.7c4.1-2.1,8.1-4.2,12.1-6.2c0.7,1.3,1.3,2.4,1.9,3.5
	c0.4-0.2,0.6-0.2,0.9-0.4c7.2-3.7,14.4-7.4,21.6-11.2c0.7-0.4,1.1-0.3,1.7,0.2c0.9,0.9,1.9,1.8,2.7,2.7c0.5,0.5,0.9,0.6,1.6,0.3
	c3.3-1.8,6.7-3.5,10.1-5.2c3.6-1.9,7.2-3.7,10.9-5.6c1.1,2.1,2.1,4.1,3.2,6.2c-1.9,1.5-3.6,2.9-5.5,4.3c-0.3,0.2-0.7,0.3-1.1,0.4
	c-1.9,0.2-3.8,0.4-5.7,0.6c-4,0.4-8,0.8-12,1.2c-0.6,0.1-0.9,0.3-1,1c-0.1,2.2-0.2,4.4-0.5,6.6c-0.3,2.5-0.4,5.2-1.1,7.6
	c-5.1,16.2-10.3,32.4-15.5,48.5c-11.6,36.2-23.2,72.5-34.8,108.7c-0.7,2.2-1.4,4.4-2.1,6.7c3.2,0,6.3,0,9.3,0c0.9,0,1.2-0.3,1.5-1.1
	c5.6-16.8,11.2-33.6,16.8-50.4c0.4-1.1,0.9-1.7,2.1-1.6c1.1,0.1,1.4-0.4,1.7-1.4c1.5-5.1,3.1-10.1,4.7-15.2c0.2-0.6,0.7-1.2,1.2-1.5
	c6.4-4.1,12.9-8.1,19.3-12.2c2.3-1.4,4.6-2.9,6.9-4.3c6.3,6.3,12.6,12.4,18.9,18.6c0.2,0.2,0.4,0.6,0.5,0.9c0.7,3.9,1.3,7.9,2,11.8
	c0.4,2.5,0.6,5.1,2.4,7.1c0.7,0.8,1.2,1.8,1.4,2.8c0.7,3.5,1.2,7.1,1.8,10.6c2,11.6,4,23.1,5.9,34.7c0.1,0.9,0.5,1.1,1.3,1.1
	c2.2-0.1,4.4,0,6.6,0c1,0,2,0,3.1,0c-1-6.7-2-13.1-3-19.6c-1.2-8-2.5-16.1-3.7-24.1c-1.3-8.4-2.6-16.8-3.9-25.2
	c-1.4-8.8-2.8-17.6-4.2-26.3c-1.3-8.2-2.6-16.4-3.9-24.6c-1.4-8.7-2.8-17.5-4.2-26.2c-1.4-8.7-2.8-17.5-4.2-26.2
	c-0.1-0.8,0.1-1.2,0.8-1.6c3.2-1.6,6.5-3.3,9.7-5c0.6-0.3,0.9-0.6,0.8-1.4c-0.8-5.8-1.4-11.6-2.2-17.5c-0.1-0.7,0.1-1,0.7-1.3
	c1.6-0.8,3.2-1.9,4.9-2.5c2.9-1.1,4.6-3,5.2-6c0.2-1,0.6-2.1,0.8-3.1c0-0.2,0.2-0.4,0.5-0.5c6-3.1,12-6.1,18-9.3
	c1.1-0.6,2-0.8,3.1-0.3c0.9,0.4,1.7,0.3,2.5-0.3c1.7-1.4,3.5-1.3,5.3-0.2c0.1,0.1,0.2,0.1,0.3,0.2c0.9,0.5,1.6,0.4,2.6,0.1
	c7.8-2.9,15.5-5.8,23.3-8.6c1.3-0.5,2.5-0.9,3.8-1.3C333.9,29.8,328.1,18.5,322.3,7.2z M244.6,172.4c-8.5,6.5-17.1,13.1-25.8,19.8
	c0.7-2.2,1.2-4.1,1.8-5.9c7.3-23.9,14.7-47.8,22-71.7c0.2-0.8,0.5-1,1.3-1c1.3,0.1,2.5,0,4,0c3.7,22.8,7.3,45.3,11,68.1
	C253.9,178.6,249.3,175.5,244.6,172.4z"/>
<path id="XMLID_62_" class="st0" d="M385.6,227.7c0-3.8-1.5-7.1-4.1-9.9c-2.5-2.6-5.4-4.1-9.2-4.7c0.4-0.1,0.5-0.1,0.6-0.2
	c7.5-1.3,12.7-7.5,12.7-15.1c0-5.4,0-10.9,0-16.3c0-8.2-6.7-15-14.9-15c-24.6,0-49.3,0-73.9,0c-0.4,0-0.8,0.1-1.2,0.1
	c0,35.1,0,70,0,105c7.5,0,14.9,0,22.5,0c0-16.1,0-32.1,0-48.1c15.1,0,30,0,45.1,0c0,16.1,0,32,0,48c7.6,0,15,0,22.5,0
	c0-0.3,0.1-0.5,0.1-0.7C385.6,256.5,385.6,242.1,385.6,227.7z M363,202.5c-15,0-29.9,0-44.9,0c0-5,0-9.9,0-15c15,0,29.9,0,44.9,0
	C363,192.5,363,197.5,363,202.5z"/>
<path id="XMLID_68_" class="st0" d="M878,214.2c-1.2-0.6-2.6-0.8-3.9-1.2c7.7-1.1,13.3-8.2,13-15.4c-0.3-5.3-0.2-10.7,0-16.1
	c0.3-7.5-6.5-15.1-15-15.1c-24.6,0.1-49.2,0-73.8,0c-0.4,0-0.8,0-1.2,0.1c0,35.1,0,70.1,0,105c7.5,0,14.9,0,22.5,0
	c0-16.1,0-32.1,0-48.1c15,0,29.9,0,45,0c0,16.1,0,32.1,0,48.1c7.5,0,15,0,22.5,0c0-0.5,0-1,0-1.5c0-14,0-28,0-42
	C887,221.5,883.7,217.1,878,214.2z M864.4,202.5c-15,0-29.8,0-44.8,0c0-5,0-10,0-15c14.9,0,29.8,0,44.8,0
	C864.4,192.5,864.4,197.5,864.4,202.5z"/>
<path id="XMLID_64_" class="st0" d="M601.3,270.4c-13.7-34.2-27.4-68.4-41-102.7c-0.4-1-0.9-1.3-1.9-1.3c-8.6,0-17.2,0-25.8,0
	c-1,0-1.5,0.3-1.9,1.3c-13,32.6-26.1,65.2-39.1,97.8c-0.8,2-1.6,4-2.4,6.1c0.6,0,1,0,1.4,0c7.7,0,15.4,0,23,0c1,0,1.4-0.4,1.7-1.2
	c2.9-7.2,5.8-14.4,8.6-21.7c0.4-1,0.8-1.3,1.9-1.3c13.2,0,26.3,0,39.5,0c1.1,0,1.5,0.3,1.9,1.3c2.8,7.2,5.7,14.4,8.4,21.6
	c0.4,1,0.9,1.3,1.9,1.3c4.8-0.1,9.5,0,14.3,0c3.3,0,6.6,0,10,0C601.6,271.1,601.5,270.8,601.3,270.4z M532.8,226.6
	c4.2-10.6,8.4-21.2,12.6-32c4.3,10.8,8.5,21.3,12.8,32C549.6,226.6,541.3,226.6,532.8,226.6z"/>
</svg>
