<?xml version="1.0" encoding="utf-8"?>
<!-- Generator: Adobe Illustrator 19.0.0, SVG Export Plug-In . SVG Version: 6.00 Build 0)  -->
<svg version="1.1" id="Layer_1" xmlns="http://www.w3.org/2000/svg" xmlns:xlink="http://www.w3.org/1999/xlink" x="0px" y="0px"
	 viewBox="0 0 50 38" style="enable-background:new 0 0 50 38;" xml:space="preserve">
<style type="text/css">
	.st0{fill:#FFFFFF;}
</style>
<path id="XMLID_5_" class="st0" d="M41.8,17.5c-0.5,0-1.1,0.1-1.6,0.2c-0.7-6.9-6.6-12.4-13.7-12.4c-0.8,0-1.5,0.7-1.5,1.5v24.4
	c0,0.8,0.7,1.5,1.5,1.5h15.3c4.2,0,7.6-3.4,7.6-7.6C49.4,20.9,46,17.5,41.8,17.5z"/>
<path id="XMLID_4_" class="st0" d="M18.9,9.8v21.4c0,0.8,0.7,1.5,1.5,1.5s1.5-0.7,1.5-1.5V9.8c0-0.8-0.7-1.5-1.5-1.5
	S18.9,9,18.9,9.8z"/>
<path id="XMLID_3_" class="st0" d="M12.8,15.9v15.3c0,0.8,0.7,1.5,1.5,1.5s1.5-0.7,1.5-1.5V15.9c0-0.8-0.7-1.5-1.5-1.5
	S12.8,15.1,12.8,15.9z"/>
<path id="XMLID_2_" class="st0" d="M6.7,31.2c0,0.8,0.7,1.5,1.5,1.5s1.5-0.7,1.5-1.5V15.9c0-0.8-0.7-1.5-1.5-1.5s-1.5,0.7-1.5,1.5
	V31.2z"/>
<path id="XMLID_1_" class="st0" d="M2.1,32.7c0.8,0,1.5-0.7,1.5-1.5v-9.2c0-0.8-0.7-1.5-1.5-1.5s-1.5,0.7-1.5,1.5v9.2
	C0.6,32.1,1.3,32.7,2.1,32.7z"/>
</svg>
