<?xml version="1.0" encoding="utf-8"?>
<!-- Generator: Adobe Illustrator 19.0.0, SVG Export Plug-In . SVG Version: 6.00 Build 0)  -->
<svg version="1.1" id="Layer_1" xmlns="http://www.w3.org/2000/svg" xmlns:xlink="http://www.w3.org/1999/xlink" x="0px" y="0px"
	 viewBox="0 0 50 38" style="enable-background:new 0 0 50 38;" xml:space="preserve">
<style type="text/css">
	.st0{fill:#FFFFFF;}
</style>
<path id="XMLID_1_" class="st0" d="M16.9,37.5C34,37.5,43.4,23.3,43.4,11c0-0.4,0-0.8,0-1.2c1.8-1.3,3.4-3,4.6-4.8
	c-1.7,0.7-3.5,1.2-5.4,1.5c1.9-1.2,3.4-3,4.1-5.2c-1.8,1.1-3.8,1.8-5.9,2.3c-1.7-1.8-4.1-2.9-6.8-2.9c-5.1,0-9.3,4.2-9.3,9.3
	c0,0.7,0.1,1.4,0.2,2.1c-7.7-0.4-14.6-4.1-19.2-9.7C4.9,3.7,4.5,5.3,4.5,7c0,3.2,1.6,6.1,4.1,7.8c-1.5,0-3-0.5-4.2-1.2
	c0,0,0,0.1,0,0.1c0,4.5,3.2,8.3,7.5,9.1c-0.8,0.2-1.6,0.3-2.5,0.3c-0.6,0-1.2-0.1-1.8-0.2c1.2,3.7,4.6,6.4,8.7,6.5
	c-3.2,2.5-7.2,4-11.6,4c-0.8,0-1.5,0-2.2-0.1C6.7,36,11.6,37.5,16.9,37.5"/>
</svg>
