<?xml version="1.0" encoding="utf-8"?>
<!-- Generator: Adobe Illustrator 19.0.0, SVG Export Plug-In . SVG Version: 6.00 Build 0)  -->
<svg version="1.1" id="Layer_1" xmlns="http://www.w3.org/2000/svg" xmlns:xlink="http://www.w3.org/1999/xlink" x="0px" y="0px"
	 viewBox="0 0 50 38" style="enable-background:new 0 0 50 38;" xml:space="preserve">
<style type="text/css">
	.st0{fill:#FFFFFF;}
</style>
<path id="XMLID_4_" class="st0" d="M34.5,29.3c-0.5,0-1.1-0.2-1.5-0.6c-0.9-0.8-1-2.2-0.1-3.2c1.7-1.8,2.6-4.1,2.6-6.6
	s-0.9-4.8-2.6-6.6c-0.8-0.9-0.8-2.3,0.1-3.2c0.9-0.8,2.3-0.8,3.2,0.1c2.4,2.6,3.8,6,3.8,9.6s-1.3,7-3.8,9.6
	C35.7,29.1,35.1,29.3,34.5,29.3z"/>
<path id="XMLID_3_" class="st0" d="M40.4,36c-0.6,0-1.1-0.2-1.6-0.7c-0.9-0.9-0.9-2.3,0-3.2c3.5-3.5,5.5-8.2,5.5-13.2
	s-1.9-9.6-5.5-13.2C38,5,38,3.6,38.9,2.7c0.9-0.9,2.3-0.9,3.2,0C46.4,7,48.8,12.8,48.8,19S46.4,31,42,35.3C41.6,35.7,41,36,40.4,36z
	"/>
<path id="XMLID_2_" class="st0" d="M10.4,10.1H5.3c-2.3,0-4.1,1.8-4.1,4.1v9.7c0,2.3,1.8,4.1,4.1,4.1h5.1c0.3,0,0.5-0.2,0.5-0.5
	V10.5C10.9,10.3,10.7,10.1,10.4,10.1z"/>
<path id="XMLID_1_" class="st0" d="M27.2,0.4H25c-0.5,0-1,0.2-1.4,0.5L14,8.2c-0.1,0.1-0.2,0.2-0.2,0.4v20.8c0,0.1,0.1,0.3,0.2,0.4
	l9.6,7.4c0.4,0.3,0.9,0.5,1.4,0.5h2.2c1.2,0,2.2-1,2.2-2.2V2.6C29.5,1.4,28.5,0.4,27.2,0.4L27.2,0.4z"/>
</svg>
