<?xml version="1.0" encoding="utf-8"?>
<!-- Generator: Adobe Illustrator 19.0.0, SVG Export Plug-In . SVG Version: 6.00 Build 0)  -->
<svg version="1.1" id="Layer_1" xmlns="http://www.w3.org/2000/svg" xmlns:xlink="http://www.w3.org/1999/xlink" x="0px" y="0px"
	 viewBox="0 0 50 38.3" style="enable-background:new 0 0 50 38.3;" xml:space="preserve">
<style type="text/css">
	.st0{fill:#FFFFFF;}
</style>
<g id="surface1701840">
	<path id="XMLID_2_" class="st0" d="M48.6,7.2c-0.5-2.6-2.7-4.4-5.2-5c-3.8-0.8-10.9-1.4-18.6-1.4C17.2,0.8,10,1.4,6.1,2.2
		c-2.6,0.6-4.8,2.3-5.2,5C0.5,10.1,0,14.1,0,19.3s0.5,9.3,1,12.2c0.5,2.6,2.7,4.4,5.2,5c4.1,0.8,11,1.4,18.7,1.4s14.6-0.6,18.7-1.4
		c2.6-0.6,4.8-2.3,5.2-5c0.5-2.9,1-7.1,1.2-12.2C49.8,14.1,49.2,10.1,48.6,7.2z M18.6,27.5V11.2l14.2,8.1L18.6,27.5z"/>
</g>
</svg>
